<svg width="22" height="29" viewBox="0 0 22 29" fill="none" xmlns="http://www.w3.org/2000/svg">
<path d="M14.93 3.03C14.93 2.22 14.36 1.55 13.61 1.38C13.5462 1.36568 13.4866 1.33648 13.4362 1.29477C13.3858 1.25306 13.346 1.20003 13.32 1.14C13.09 0.47 12.46 0 11.72 0C11.3693 0.000328649 11.0274 0.109096 10.7409 0.311394C10.4545 0.513693 10.2376 0.799624 10.12 1.13C10.08 1.26 9.97002 1.34 9.84002 1.37C9.08002 1.54 8.52002 2.22 8.52002 3.03C8.52002 3.84 9.09002 4.51 9.84002 4.68C9.97002 4.71 10.08 4.8 10.13 4.92C10.36 5.58 10.99 6.05 11.73 6.05C12.0807 6.04967 12.4227 5.9409 12.7091 5.73861C12.9956 5.53631 13.2124 5.25038 13.33 4.92C13.37 4.79 13.49 4.7 13.62 4.68C14.36 4.51 14.93 3.83 14.93 3.03Z" fill="#F9C23C"/>
<path d="M14.062 3.25199C14.3811 2.9852 14.7841 2.83933 15.2 2.83999C15.97 2.83999 16.63 3.32999 16.87 4.01999C16.92 4.15999 17.03 4.24999 17.17 4.27999C17.97 4.45999 18.56 5.15999 18.56 6.00999C18.56 6.85999 17.97 7.55999 17.17 7.73999C17.03 7.76999 16.92 7.86999 16.87 7.99999C16.63 8.68999 15.97 9.17999 15.2 9.17999C14.9003 9.18024 14.6055 9.1044 14.3431 8.95958C14.0808 8.81476 13.8595 8.6057 13.7 8.35199C13.4179 8.54697 13.0829 8.65096 12.74 8.64999C12 8.64999 11.37 8.17999 11.14 7.51999C11.114 7.45996 11.0742 7.40692 11.0238 7.36521C10.9734 7.3235 10.9138 7.2943 10.85 7.27999C10.7578 7.25928 10.6675 7.23084 10.58 7.19499C10.3298 7.46858 10.0017 7.65881 9.64001 7.73999C9.50001 7.76999 9.39001 7.86999 9.34001 7.99999C9.10001 8.68999 8.44001 9.17999 7.67001 9.17999C6.90001 9.17999 6.24001 8.68999 6.00001 7.99999C5.97873 7.93326 5.93948 7.87369 5.88655 7.82783C5.83363 7.78196 5.76908 7.75156 5.70001 7.73999C5.30764 7.65135 4.95716 7.43171 4.70631 7.11724C4.45546 6.80278 4.31922 6.41225 4.32001 6.00999C4.32001 5.15999 4.91001 4.45999 5.70001 4.27999C5.84001 4.24999 5.96001 4.15999 6.00001 4.01999C6.25001 3.32999 6.90001 2.83999 7.68001 2.83999C8.45001 2.83999 9.11001 3.32999 9.35001 4.01999C9.40001 4.15999 9.51001 4.24999 9.65001 4.27999C9.78801 4.30999 9.92001 4.35699 10.042 4.41699C10.262 4.20399 10.536 4.04999 10.84 3.97999C10.97 3.95999 11.09 3.86999 11.13 3.73999C11.2317 3.45435 11.408 3.2011 11.6405 3.00651C11.873 2.81191 12.1533 2.68305 12.4524 2.63327C12.7515 2.58349 13.0585 2.61461 13.3415 2.72339C13.6245 2.83218 13.8733 3.01469 14.062 3.25199Z" fill="#FCD53F"/>
<path d="M14.53 6.42001C15.184 6.42001 15.76 6.77401 16.065 7.30401C16.2289 7.07359 16.4457 6.8858 16.6971 6.75635C16.9485 6.62691 17.2272 6.55958 17.51 6.56001C18.28 6.56001 18.94 7.05001 19.18 7.74001C19.23 7.88001 19.34 7.97001 19.48 8.00001C20.28 8.18001 20.87 8.88001 20.87 9.73001C20.87 10.57 20.28 11.28 19.48 11.46C19.34 11.49 19.23 11.59 19.18 11.72C18.94 12.41 18.28 12.9 17.51 12.9C16.855 12.9 16.28 12.546 15.975 12.016C15.8111 12.2464 15.5944 12.4342 15.343 12.5637C15.0915 12.6931 14.8128 12.7604 14.53 12.76C14.1787 12.7608 13.8352 12.6569 13.5432 12.4615C13.2513 12.2661 13.0242 11.9881 12.891 11.663C12.691 11.769 12.467 11.838 12.23 11.86C11.47 11.93 10.79 11.52 10.48 10.89C10.355 11.1401 10.1726 11.357 9.94764 11.5229C9.7227 11.6889 9.46164 11.7992 9.18585 11.8449C8.91005 11.8906 8.62736 11.8702 8.36093 11.7856C8.0945 11.701 7.8519 11.5544 7.65301 11.358C7.55301 11.401 7.44901 11.436 7.34001 11.46C7.20001 11.49 7.09001 11.59 7.04001 11.72C6.80001 12.41 6.14001 12.9 5.37001 12.9C4.60001 12.9 3.94001 12.41 3.70001 11.72C3.67731 11.6541 3.63762 11.5954 3.58494 11.5497C3.53226 11.5041 3.46847 11.4731 3.40001 11.46C3.00547 11.3736 2.65233 11.155 2.39912 10.8403C2.14592 10.5256 2.00787 10.1339 2.00787 9.73001C2.00787 9.32613 2.14592 8.93438 2.39912 8.61973C2.65233 8.30507 3.00547 8.08642 3.40001 8.00001C3.54001 7.97001 3.65001 7.87001 3.70001 7.74001C3.94001 7.05001 4.60001 6.56001 5.37001 6.56001C6.15001 6.56001 6.80001 7.05001 7.04001 7.74001C7.09001 7.88001 7.20001 7.97001 7.34001 8.00001C7.67401 8.07501 7.97201 8.24101 8.20501 8.47001C8.24901 8.45201 8.29501 8.43501 8.34001 8.42001C8.53001 8.36001 8.68001 8.21001 8.75001 8.02001C8.98001 7.30001 9.64001 6.79001 10.43 6.79001C10.8062 6.78969 11.1727 6.90897 11.4767 7.1306C11.7806 7.35223 12.0063 7.66475 12.121 8.02301C12.258 7.95001 12.405 7.89501 12.56 7.86001C12.7 7.83001 12.81 7.73001 12.86 7.60001C13.1 6.91001 13.76 6.42001 14.53 6.42001Z" fill="#FFF478"/>
<path d="M8.73999 12.13C8.72679 11.8 8.78039 11.4708 8.89757 11.162C9.01474 10.8532 9.19308 10.5713 9.42189 10.3332C9.65069 10.095 9.92524 9.90556 10.2291 9.77614C10.5329 9.64671 10.8597 9.57999 11.19 9.57999C12.58 9.57999 13.69 10.74 13.64 12.13L17.39 11.59C17.48 10.54 18.35 9.72999 19.41 9.72999C20.65 9.72999 21.6 10.84 21.4 12.07L19.07 26.82C18.96 27.51 18.36 28.02 17.66 28.02H16.09L14.683 23.804L13.02 28.01H9.35999L8.07399 24.706L6.32999 28.02H4.75999C4.05999 28.02 3.45999 27.51 3.34999 26.82L1.01999 12.07C0.829994 10.84 1.77999 9.72999 3.01999 9.72999C4.07999 9.72999 4.95999 10.54 5.02999 11.59L8.73999 12.13Z" fill="#F8312F"/>
<path d="M6.27999 28.02L4.99 11.74C4.9 10.65 5.76 9.73001 6.84 9.73001C7.84 9.73001 8.66 10.52 8.7 11.52L9.35999 28.02H6.27999ZM13.02 28.02L13.67 11.52C13.6992 11.0267 13.9231 10.5652 14.2926 10.237C14.662 9.90882 15.1467 9.74084 15.64 9.77001C16.1333 9.79919 16.5948 10.0231 16.923 10.3926C17.2512 10.762 17.4192 11.2467 17.39 11.74L16.1 28.02H13.02Z" fill="#F4F4F4"/>
</svg>
